<svg width="270" height="161" viewBox="0 0 270 161" fill="none" xmlns="http://www.w3.org/2000/svg">
<rect x="0.389893" width="268.049" height="160.428" rx="16.0428" fill="#007EFF"/>
<rect x="0.389893" width="268.049" height="160.428" rx="16.0428" fill="url(#paint0_linear_73_14219)"/>
<rect x="0.389893" width="268.049" height="160.428" rx="16.0428" fill="url(#paint1_linear_73_14219)"/>
<mask id="mask0_73_14219" style="mask-type:alpha" maskUnits="userSpaceOnUse" x="0" y="0" width="269" height="161">
<rect x="0.389893" width="268.049" height="160.428" rx="16.0428" fill="#007EFF"/>
</mask>
<g mask="url(#mask0_73_14219)">
<ellipse cx="205.583" cy="13.0348" rx="78.8183" ry="79.2114" fill="url(#paint2_linear_73_14219)"/>
<ellipse cx="31.3186" cy="142.046" rx="38.9103" ry="39.1043" fill="url(#paint3_linear_73_14219)"/>
</g>
<path d="M22.7749 39.3904H25.5182V32.6203L28.053 39.3904H30.2669L32.7856 32.6364V39.3904H35.529V28.1283H32.3044L29.176 35.9251L26.0156 28.1283H22.7749V39.3904ZM41.6247 36.0374L39.5552 30.4385H36.491L40.1327 39.0856L38.0793 43.6417H41.0311L46.6461 30.4385H43.6782L41.6247 36.0374ZM50.5726 33.7433C50.5726 37.1123 52.9148 39.4706 56.2357 39.4706C58.9149 39.4706 60.9363 37.9786 61.578 35.5401H58.5619C58.0967 36.5027 57.2464 36.984 56.2036 36.984C54.5191 36.984 53.364 35.7326 53.364 33.7433C53.364 31.754 54.5191 30.5027 56.2036 30.5027C57.2464 30.5027 58.0967 30.9839 58.5619 31.9465H61.578C60.9363 29.508 58.9149 28 56.2357 28C52.9148 28 50.5726 30.3743 50.5726 33.7433ZM62.7125 34.8984C62.7125 37.7219 64.4612 39.5187 66.643 39.5187C67.9745 39.5187 68.9211 38.9091 69.4184 38.123V39.3904H72.1617V30.4385H69.4184V31.7059C68.9371 30.9198 67.9906 30.3102 66.659 30.3102C64.4612 30.3102 62.7125 32.0749 62.7125 34.8984ZM69.4184 34.9144C69.4184 36.3422 68.5039 37.1283 67.4612 37.1283C66.4344 37.1283 65.5039 36.3262 65.5039 34.8984C65.5039 33.4706 66.4344 32.7005 67.4612 32.7005C68.5039 32.7005 69.4184 33.4866 69.4184 34.9144ZM76.8897 35.2353C76.8897 33.6952 77.6437 33.246 78.9432 33.246H79.6972V30.3422C78.494 30.3422 77.5154 30.9839 76.8897 31.9305V30.4385H74.1464V39.3904H76.8897V35.2353ZM80.463 34.8984C80.463 37.7219 82.2116 39.5187 84.4095 39.5187C85.725 39.5187 86.6715 38.9251 87.1689 38.107V39.3904H89.9122V27.5187H87.1689V31.6738C86.6234 30.8556 85.5967 30.3102 84.4095 30.3102C82.2116 30.3102 80.463 32.0749 80.463 34.8984ZM87.1689 34.9144C87.1689 36.3422 86.2544 37.1283 85.2117 37.1283C84.1849 37.1283 83.2544 36.3262 83.2544 34.8984C83.2544 33.4706 84.1849 32.7005 85.2117 32.7005C86.2544 32.7005 87.1689 33.4866 87.1689 34.9144Z" fill="white"/>
<path d="M23.9327 136.118C23.34 136.118 22.8752 135.953 22.5383 135.622C22.2014 135.291 22.0329 134.833 22.0329 134.246H22.8284C22.8284 134.577 22.9095 134.854 23.0717 135.079C23.2339 135.304 23.5178 135.416 23.9233 135.416C24.3164 135.416 24.5878 135.307 24.7375 135.088C24.8935 134.87 24.9715 134.599 24.9715 134.274V129.455H25.7576V134.274C25.7576 134.854 25.5953 135.307 25.2709 135.631C24.9527 135.956 24.5067 136.118 23.9327 136.118ZM29.211 136.118C28.7743 136.118 28.3812 136.018 28.0318 135.818C27.6825 135.619 27.4048 135.338 27.199 134.976C26.9993 134.608 26.8995 134.178 26.8995 133.685C26.8995 133.192 27.0024 132.764 27.2083 132.403C27.4142 132.035 27.6918 131.751 28.0412 131.551C28.3968 131.351 28.793 131.252 29.2297 131.252C29.6664 131.252 30.0595 131.351 30.4088 131.551C30.7582 131.751 31.0327 132.035 31.2324 132.403C31.4383 132.764 31.5412 133.192 31.5412 133.685C31.5412 134.178 31.4383 134.608 31.2324 134.976C31.0265 135.338 30.7457 135.619 30.3901 135.818C30.0408 136.018 29.6477 136.118 29.211 136.118ZM29.211 135.444C29.4793 135.444 29.7288 135.379 29.9597 135.248C30.1905 135.117 30.3777 134.92 30.5211 134.658C30.6646 134.396 30.7364 134.072 30.7364 133.685C30.7364 133.298 30.6646 132.973 30.5211 132.711C30.3839 132.449 30.1998 132.253 29.969 132.122C29.7382 131.991 29.4917 131.925 29.2297 131.925C28.9614 131.925 28.7119 131.991 28.481 132.122C28.2502 132.253 28.063 132.449 27.9195 132.711C27.776 132.973 27.7043 133.298 27.7043 133.685C27.7043 134.072 27.776 134.396 27.9195 134.658C28.063 134.92 28.2471 135.117 28.4717 135.248C28.7025 135.379 28.949 135.444 29.211 135.444ZM32.6342 136.006V129.268H33.4203V132.159C33.5763 131.872 33.7978 131.651 34.0848 131.495C34.3717 131.333 34.6837 131.252 35.0206 131.252C35.5571 131.252 35.9876 131.42 36.312 131.757C36.6365 132.088 36.7987 132.599 36.7987 133.292V136.006H36.0219V133.376C36.0219 132.409 35.632 131.925 34.8521 131.925C34.4466 131.925 34.1066 132.072 33.8321 132.365C33.5576 132.652 33.4203 133.064 33.4203 133.6V136.006H32.6342ZM37.9897 136.006V131.364H38.7009L38.7477 132.197C38.8974 131.903 39.1127 131.673 39.3934 131.504C39.6742 131.336 39.9923 131.252 40.348 131.252C40.897 131.252 41.3337 131.42 41.6581 131.757C41.9888 132.088 42.1541 132.599 42.1541 133.292V136.006H41.368V133.376C41.368 132.409 40.9687 131.925 40.1701 131.925C39.7709 131.925 39.4371 132.072 39.1688 132.365C38.9068 132.652 38.7758 133.064 38.7758 133.6V136.006H37.9897ZM45.8685 136.006V129.455H47.8806C49.0348 129.455 49.8833 129.748 50.426 130.334C50.9751 130.921 51.2496 131.726 51.2496 132.749C51.2496 133.753 50.9751 134.549 50.426 135.135C49.8833 135.715 49.0348 136.006 47.8806 136.006H45.8685ZM46.6546 135.35H47.8619C48.4982 135.35 49.0036 135.248 49.3779 135.042C49.7585 134.83 50.0299 134.53 50.1921 134.143C50.3543 133.75 50.4354 133.285 50.4354 132.749C50.4354 132.2 50.3543 131.729 50.1921 131.336C50.0299 130.943 49.7585 130.64 49.3779 130.428C49.0036 130.216 48.4982 130.11 47.8619 130.11H46.6546V135.35ZM54.4528 136.118C54.0161 136.118 53.623 136.018 53.2737 135.818C52.9243 135.619 52.6467 135.338 52.4408 134.976C52.2411 134.608 52.1413 134.178 52.1413 133.685C52.1413 133.192 52.2443 132.764 52.4501 132.403C52.656 132.035 52.9337 131.751 53.283 131.551C53.6386 131.351 54.0348 131.252 54.4715 131.252C54.9083 131.252 55.3013 131.351 55.6507 131.551C56.0001 131.751 56.2746 132.035 56.4742 132.403C56.6801 132.764 56.783 133.192 56.783 133.685C56.783 134.178 56.6801 134.608 56.4742 134.976C56.2683 135.338 55.9876 135.619 55.632 135.818C55.2826 136.018 54.8895 136.118 54.4528 136.118ZM54.4528 135.444C54.7211 135.444 54.9706 135.379 55.2015 135.248C55.4323 135.117 55.6195 134.92 55.763 134.658C55.9065 134.396 55.9782 134.072 55.9782 133.685C55.9782 133.298 55.9065 132.973 55.763 132.711C55.6257 132.449 55.4417 132.253 55.2108 132.122C54.98 131.991 54.7336 131.925 54.4715 131.925C54.2033 131.925 53.9537 131.991 53.7229 132.122C53.492 132.253 53.3049 132.449 53.1614 132.711C53.0179 132.973 52.9461 133.298 52.9461 133.685C52.9461 134.072 53.0179 134.396 53.1614 134.658C53.3049 134.92 53.4889 135.117 53.7135 135.248C53.9443 135.379 54.1908 135.444 54.4528 135.444ZM59.963 136.118C59.52 136.118 59.127 136.018 58.7838 135.818C58.4407 135.613 58.1693 135.329 57.9696 134.967C57.7762 134.605 57.6795 134.178 57.6795 133.685C57.6795 133.198 57.7762 132.774 57.9696 132.412C58.163 132.044 58.4313 131.76 58.7745 131.56C59.1238 131.354 59.5262 131.252 59.9817 131.252C60.4309 131.252 60.8177 131.354 61.1421 131.56C61.4728 131.76 61.7254 132.025 61.9001 132.356C62.0748 132.686 62.1622 133.042 62.1622 133.423C62.1622 133.491 62.159 133.56 62.1528 133.629C62.1528 133.697 62.1528 133.775 62.1528 133.863H58.4563C58.475 134.218 58.5561 134.514 58.6996 134.752C58.8493 134.982 59.0334 135.157 59.2517 135.276C59.4763 135.394 59.7134 135.453 59.963 135.453C60.2874 135.453 60.5588 135.379 60.7771 135.229C60.9955 135.079 61.1546 134.876 61.2544 134.621H62.0311C61.9064 135.051 61.6662 135.41 61.3106 135.697C60.9612 135.977 60.512 136.118 59.963 136.118ZM59.963 131.916C59.5886 131.916 59.2548 132.031 58.9616 132.262C58.6746 132.487 58.5093 132.817 58.4656 133.254H61.3854C61.3667 132.836 61.2232 132.509 60.9549 132.272C60.6867 132.035 60.356 131.916 59.963 131.916Z" fill="white"/>
<path d="M224.322 136.006V130.334L223.265 130.568V130.026L224.584 129.455H225.118V136.006H224.322ZM226.397 136.006V135.453C226.84 135.104 227.258 134.752 227.651 134.396C228.051 134.034 228.403 133.678 228.709 133.329C229.021 132.98 229.264 132.637 229.439 132.3C229.62 131.963 229.71 131.638 229.71 131.326C229.71 131.096 229.67 130.88 229.589 130.681C229.514 130.481 229.389 130.322 229.214 130.203C229.04 130.079 228.802 130.016 228.503 130.016C228.216 130.016 227.976 130.082 227.782 130.213C227.589 130.338 227.442 130.506 227.343 130.718C227.249 130.93 227.202 131.158 227.202 131.401H226.444C226.444 130.971 226.535 130.603 226.716 130.297C226.897 129.985 227.143 129.748 227.455 129.586C227.767 129.424 228.119 129.342 228.512 129.342C229.093 129.342 229.567 129.508 229.935 129.838C230.309 130.163 230.496 130.649 230.496 131.298C230.496 131.685 230.4 132.069 230.206 132.449C230.013 132.824 229.766 133.189 229.467 133.544C229.167 133.894 228.846 134.221 228.503 134.527C228.166 134.833 227.851 135.107 227.558 135.35H230.721V136.006H226.397ZM231.425 136.895L233.774 128.856H234.551L232.202 136.895H231.425ZM235.408 136.006V135.453C235.851 135.104 236.269 134.752 236.662 134.396C237.062 134.034 237.414 133.678 237.72 133.329C238.032 132.98 238.275 132.637 238.45 132.3C238.631 131.963 238.721 131.638 238.721 131.326C238.721 131.096 238.681 130.88 238.6 130.681C238.525 130.481 238.4 130.322 238.225 130.203C238.051 130.079 237.814 130.016 237.514 130.016C237.227 130.016 236.987 130.082 236.793 130.213C236.6 130.338 236.453 130.506 236.354 130.718C236.26 130.93 236.213 131.158 236.213 131.401H235.455C235.455 130.971 235.546 130.603 235.727 130.297C235.908 129.985 236.154 129.748 236.466 129.586C236.778 129.424 237.13 129.342 237.523 129.342C238.104 129.342 238.578 129.508 238.946 129.838C239.32 130.163 239.507 130.649 239.507 131.298C239.507 131.685 239.411 132.069 239.217 132.449C239.024 132.824 238.777 133.189 238.478 133.544C238.178 133.894 237.857 134.221 237.514 134.527C237.177 134.833 236.862 135.107 236.569 135.35H239.732V136.006H235.408ZM243.094 136.118C242.645 136.118 242.255 136.037 241.924 135.875C241.594 135.712 241.328 135.491 241.129 135.21C240.935 134.923 240.817 134.599 240.773 134.237H241.541C241.615 134.599 241.79 134.892 242.065 135.117C242.339 135.335 242.685 135.444 243.103 135.444C243.415 135.444 243.684 135.372 243.908 135.229C244.133 135.079 244.304 134.879 244.423 134.63C244.548 134.38 244.61 134.103 244.61 133.797C244.61 133.31 244.473 132.917 244.198 132.618C243.924 132.318 243.568 132.169 243.132 132.169C242.77 132.169 242.461 132.25 242.205 132.412C241.949 132.574 241.762 132.786 241.644 133.048H240.895L241.456 129.455H244.891V130.138H242.065L241.681 132.131C241.831 131.95 242.037 131.801 242.299 131.682C242.567 131.563 242.873 131.504 243.216 131.504C243.646 131.504 244.021 131.604 244.339 131.804C244.663 132.003 244.916 132.275 245.097 132.618C245.278 132.961 245.368 133.351 245.368 133.788C245.368 134.206 245.278 134.592 245.097 134.948C244.922 135.304 244.663 135.588 244.32 135.8C243.983 136.012 243.574 136.118 243.094 136.118Z" fill="white"/>
<path d="M24.0744 106.241V96.5188L22.2616 96.9199V95.9894L24.5236 95.0108H25.438V106.241H24.0744ZM27.632 106.241V105.294C28.3914 104.695 29.108 104.091 29.7817 103.481C30.4662 102.861 31.0705 102.251 31.5946 101.653C32.1293 101.054 32.5465 100.465 32.8459 99.8878C33.1561 99.3103 33.3112 98.7541 33.3112 98.2194C33.3112 97.8237 33.2416 97.4547 33.1026 97.1124C32.9743 96.7702 32.7604 96.4975 32.4609 96.2942C32.1614 96.0803 31.755 95.9734 31.2416 95.9734C30.7497 95.9734 30.3379 96.0857 30.0063 96.3103C29.6748 96.5242 29.4235 96.813 29.2523 97.1766C29.0919 97.5402 29.0117 97.9306 29.0117 98.3477H27.7122C27.7122 97.6098 27.8673 96.9787 28.1775 96.4547C28.4876 95.9199 28.9101 95.5135 29.4448 95.2354C29.9796 94.9573 30.5839 94.8183 31.2577 94.8183C32.2523 94.8183 33.0652 95.1017 33.6962 95.6686C34.3379 96.2247 34.6588 97.059 34.6588 98.1713C34.6588 98.8344 34.493 99.4921 34.1614 100.145C33.8299 100.786 33.4074 101.412 32.8941 102.022C32.3807 102.62 31.8299 103.182 31.2416 103.706C30.6641 104.23 30.124 104.701 29.6213 105.118H35.0438V106.241H27.632ZM40.4866 106.433C39.77 106.433 39.1229 106.305 38.5454 106.048C37.9678 105.781 37.5026 105.385 37.1497 104.861C36.8074 104.337 36.6256 103.685 36.6042 102.904H37.9678C37.9785 103.546 38.2031 104.102 38.6416 104.572C39.0801 105.032 39.6951 105.262 40.4866 105.262C41.278 105.262 41.8716 105.043 42.2673 104.604C42.6737 104.166 42.8769 103.637 42.8769 103.016C42.8769 102.492 42.7486 102.064 42.4919 101.733C42.2459 101.401 41.909 101.155 41.4812 100.995C41.0641 100.834 40.6042 100.754 40.1015 100.754H39.2673V99.6151H40.1015C40.8288 99.6151 41.3957 99.4493 41.8021 99.1178C42.2192 98.7862 42.4277 98.321 42.4277 97.7221C42.4277 97.2194 42.262 96.8076 41.9304 96.4868C41.6096 96.1552 41.1283 95.9894 40.4866 95.9894C39.8662 95.9894 39.3689 96.1766 38.9946 96.5509C38.6202 96.9146 38.4117 97.3745 38.3689 97.9306H37.0053C37.0374 97.321 37.1978 96.7809 37.4866 96.3103C37.786 95.8397 38.1924 95.4761 38.7058 95.2194C39.2192 94.952 39.8128 94.8183 40.4866 94.8183C41.2138 94.8183 41.8181 94.9466 42.2994 95.2033C42.7914 95.46 43.1604 95.8023 43.4064 96.2301C43.663 96.6579 43.7914 97.1285 43.7914 97.6418C43.7914 98.2087 43.6363 98.7274 43.3261 99.198C43.016 99.6579 42.5507 99.968 41.9304 100.128C42.5935 100.268 43.1443 100.583 43.5828 101.075C44.0213 101.567 44.2406 102.214 44.2406 103.016C44.2406 103.637 44.0962 104.209 43.8074 104.733C43.5293 105.246 43.1122 105.658 42.5561 105.968C41.9999 106.278 41.3101 106.433 40.4866 106.433ZM51.5062 106.241V103.834H45.811V102.792L51.2656 95.0108H52.8378V102.647H54.5062V103.834H52.8378V106.241H51.5062ZM47.303 102.647H51.5704V96.5028L47.303 102.647ZM70.1442 102.824C69.802 102.824 69.4811 102.738 69.1816 102.567C68.8929 102.396 68.6629 102.166 68.4918 101.877C68.3207 101.578 68.2351 101.251 68.2351 100.899C68.2351 100.535 68.3207 100.209 68.4918 99.9199C68.6629 99.6205 68.8929 99.3852 69.1816 99.214C69.4811 99.0429 69.802 98.9573 70.1442 98.9573C70.5078 98.9573 70.834 99.0429 71.1228 99.214C71.4223 99.3852 71.6576 99.6205 71.8287 99.9199C71.9998 100.209 72.0854 100.535 72.0854 100.899C72.0854 101.251 71.9998 101.578 71.8287 101.877C71.6576 102.166 71.4223 102.396 71.1228 102.567C70.834 102.738 70.5078 102.824 70.1442 102.824ZM77.8191 102.824C77.4768 102.824 77.1559 102.738 76.8565 102.567C76.5677 102.396 76.3378 102.166 76.1666 101.877C75.9955 101.578 75.91 101.251 75.91 100.899C75.91 100.535 75.9955 100.209 76.1666 99.9199C76.3378 99.6205 76.5677 99.3852 76.8565 99.214C77.1559 99.0429 77.4768 98.9573 77.8191 98.9573C78.1827 98.9573 78.5089 99.0429 78.7977 99.214C79.0971 99.3852 79.3324 99.6205 79.5035 99.9199C79.6747 100.209 79.7602 100.535 79.7602 100.899C79.7602 101.251 79.6747 101.578 79.5035 101.877C79.3324 102.166 79.0971 102.396 78.7977 102.567C78.5089 102.738 78.1827 102.824 77.8191 102.824ZM85.4939 102.824C85.1517 102.824 84.8308 102.738 84.5313 102.567C84.2426 102.396 84.0126 102.166 83.8415 101.877C83.6704 101.578 83.5848 101.251 83.5848 100.899C83.5848 100.535 83.6704 100.209 83.8415 99.9199C84.0126 99.6205 84.2426 99.3852 84.5313 99.214C84.8308 99.0429 85.1517 98.9573 85.4939 98.9573C85.8575 98.9573 86.1837 99.0429 86.4725 99.214C86.772 99.3852 87.0073 99.6205 87.1784 99.9199C87.3495 100.209 87.4351 100.535 87.4351 100.899C87.4351 101.251 87.3495 101.578 87.1784 101.877C87.0073 102.166 86.772 102.396 86.4725 102.567C86.1837 102.738 85.8575 102.824 85.4939 102.824ZM93.1688 102.824C92.8265 102.824 92.5057 102.738 92.2062 102.567C91.9174 102.396 91.6875 102.166 91.5164 101.877C91.3452 101.578 91.2597 101.251 91.2597 100.899C91.2597 100.535 91.3452 100.209 91.5164 99.9199C91.6875 99.6205 91.9174 99.3852 92.2062 99.214C92.5057 99.0429 92.8265 98.9573 93.1688 98.9573C93.5324 98.9573 93.8586 99.0429 94.1474 99.214C94.4468 99.3852 94.6821 99.6205 94.8533 99.9199C95.0244 100.209 95.1099 100.535 95.1099 100.899C95.1099 101.251 95.0244 101.578 94.8533 101.877C94.6821 102.166 94.4468 102.396 94.1474 102.567C93.8586 102.738 93.5324 102.824 93.1688 102.824ZM107.014 102.824C106.672 102.824 106.351 102.738 106.052 102.567C105.763 102.396 105.533 102.166 105.362 101.877C105.191 101.578 105.105 101.251 105.105 100.899C105.105 100.535 105.191 100.209 105.362 99.9199C105.533 99.6205 105.763 99.3852 106.052 99.214C106.351 99.0429 106.672 98.9573 107.014 98.9573C107.378 98.9573 107.704 99.0429 107.993 99.214C108.293 99.3852 108.528 99.6205 108.699 99.9199C108.87 100.209 108.956 100.535 108.956 100.899C108.956 101.251 108.87 101.578 108.699 101.877C108.528 102.166 108.293 102.396 107.993 102.567C107.704 102.738 107.378 102.824 107.014 102.824ZM114.689 102.824C114.347 102.824 114.026 102.738 113.727 102.567C113.438 102.396 113.208 102.166 113.037 101.877C112.866 101.578 112.78 101.251 112.78 100.899C112.78 100.535 112.866 100.209 113.037 99.9199C113.208 99.6205 113.438 99.3852 113.727 99.214C114.026 99.0429 114.347 98.9573 114.689 98.9573C115.053 98.9573 115.379 99.0429 115.668 99.214C115.967 99.3852 116.203 99.6205 116.374 99.9199C116.545 100.209 116.63 100.535 116.63 100.899C116.63 101.251 116.545 101.578 116.374 101.877C116.203 102.166 115.967 102.396 115.668 102.567C115.379 102.738 115.053 102.824 114.689 102.824ZM122.364 102.824C122.022 102.824 121.701 102.738 121.402 102.567C121.113 102.396 120.883 102.166 120.712 101.877C120.541 101.578 120.455 101.251 120.455 100.899C120.455 100.535 120.541 100.209 120.712 99.9199C120.883 99.6205 121.113 99.3852 121.402 99.214C121.701 99.0429 122.022 98.9573 122.364 98.9573C122.728 98.9573 123.054 99.0429 123.343 99.214C123.642 99.3852 123.878 99.6205 124.049 99.9199C124.22 100.209 124.305 100.535 124.305 100.899C124.305 101.251 124.22 101.578 124.049 101.877C123.878 102.166 123.642 102.396 123.343 102.567C123.054 102.738 122.728 102.824 122.364 102.824ZM130.039 102.824C129.697 102.824 129.376 102.738 129.076 102.567C128.788 102.396 128.558 102.166 128.387 101.877C128.215 101.578 128.13 101.251 128.13 100.899C128.13 100.535 128.215 100.209 128.387 99.9199C128.558 99.6205 128.788 99.3852 129.076 99.214C129.376 99.0429 129.697 98.9573 130.039 98.9573C130.403 98.9573 130.729 99.0429 131.018 99.214C131.317 99.3852 131.552 99.6205 131.724 99.9199C131.895 100.209 131.98 100.535 131.98 100.899C131.98 101.251 131.895 101.578 131.724 101.877C131.552 102.166 131.317 102.396 131.018 102.567C130.729 102.738 130.403 102.824 130.039 102.824ZM143.885 102.824C143.542 102.824 143.222 102.738 142.922 102.567C142.633 102.396 142.403 102.166 142.232 101.877C142.061 101.578 141.976 101.251 141.976 100.899C141.976 100.535 142.061 100.209 142.232 99.9199C142.403 99.6205 142.633 99.3852 142.922 99.214C143.222 99.0429 143.542 98.9573 143.885 98.9573C144.248 98.9573 144.575 99.0429 144.863 99.214C145.163 99.3852 145.398 99.6205 145.569 99.9199C145.74 100.209 145.826 100.535 145.826 100.899C145.826 101.251 145.74 101.578 145.569 101.877C145.398 102.166 145.163 102.396 144.863 102.567C144.575 102.738 144.248 102.824 143.885 102.824ZM151.56 102.824C151.217 102.824 150.896 102.738 150.597 102.567C150.308 102.396 150.078 102.166 149.907 101.877C149.736 101.578 149.65 101.251 149.65 100.899C149.65 100.535 149.736 100.209 149.907 99.9199C150.078 99.6205 150.308 99.3852 150.597 99.214C150.896 99.0429 151.217 98.9573 151.56 98.9573C151.923 98.9573 152.249 99.0429 152.538 99.214C152.838 99.3852 153.073 99.6205 153.244 99.9199C153.415 100.209 153.501 100.535 153.501 100.899C153.501 101.251 153.415 101.578 153.244 101.877C153.073 102.166 152.838 102.396 152.538 102.567C152.249 102.738 151.923 102.824 151.56 102.824ZM159.234 102.824C158.892 102.824 158.571 102.738 158.272 102.567C157.983 102.396 157.753 102.166 157.582 101.877C157.411 101.578 157.325 101.251 157.325 100.899C157.325 100.535 157.411 100.209 157.582 99.9199C157.753 99.6205 157.983 99.3852 158.272 99.214C158.571 99.0429 158.892 98.9573 159.234 98.9573C159.598 98.9573 159.924 99.0429 160.213 99.214C160.512 99.3852 160.748 99.6205 160.919 99.9199C161.09 100.209 161.176 100.535 161.176 100.899C161.176 101.251 161.09 101.578 160.919 101.877C160.748 102.166 160.512 102.396 160.213 102.567C159.924 102.738 159.598 102.824 159.234 102.824ZM166.909 102.824C166.567 102.824 166.246 102.738 165.947 102.567C165.658 102.396 165.428 102.166 165.257 101.877C165.086 101.578 165 101.251 165 100.899C165 100.535 165.086 100.209 165.257 99.9199C165.428 99.6205 165.658 99.3852 165.947 99.214C166.246 99.0429 166.567 98.9573 166.909 98.9573C167.273 98.9573 167.599 99.0429 167.888 99.214C168.187 99.3852 168.423 99.6205 168.594 99.9199C168.765 100.209 168.85 100.535 168.85 100.899C168.85 101.251 168.765 101.578 168.594 101.877C168.423 102.166 168.187 102.396 167.888 102.567C167.599 102.738 167.273 102.824 166.909 102.824Z" fill="white"/>
<defs>
<linearGradient id="paint0_linear_73_14219" x1="0.389893" y1="0" x2="141.778" y2="236.235" gradientUnits="userSpaceOnUse">
<stop stop-color="#00F0FF"/>
<stop offset="1" stop-color="#8000FF"/>
</linearGradient>
<linearGradient id="paint1_linear_73_14219" x1="0.389892" y1="-0.742722" x2="67.7698" y2="220.735" gradientUnits="userSpaceOnUse">
<stop stop-color="#087EE1"/>
<stop offset="1" stop-color="#05E8BA"/>
</linearGradient>
<linearGradient id="paint2_linear_73_14219" x1="284.402" y1="-227.273" x2="99.4396" y2="97.1381" gradientUnits="userSpaceOnUse">
<stop stop-color="white"/>
<stop offset="0.944828" stop-color="white" stop-opacity="0"/>
</linearGradient>
<linearGradient id="paint3_linear_73_14219" x1="-65.4582" y1="315.509" x2="49.8709" y2="77.6551" gradientUnits="userSpaceOnUse">
<stop stop-color="white"/>
<stop offset="0.944828" stop-color="white" stop-opacity="0"/>
</linearGradient>
</defs>
</svg>
