<svg width="388" height="235" viewBox="0 0 388 235" fill="none" xmlns="http://www.w3.org/2000/svg">
<rect x="0.650024" y="-0.0078125" width="386.511" height="234.255" rx="20.9781" fill="white"/>
<rect opacity="0.1" x="31.3407" y="157.328" width="53.7088" height="48.9489" rx="10.4891" fill="#007EFF"/>
<g clip-path="url(#clip0_73_10571)">
<path d="M72.1442 175.49C71.0305 174.226 69.2554 173.389 67.2626 173.157C66.631 169.648 63.2541 167.817 60.008 167.817H48.3076L42.8527 190.543H50.1138L48.8162 195.788H58.1131L59.9713 188.795H62.9159C65.4449 188.795 67.7474 188.112 69.5744 186.82C71.4687 185.48 72.7593 183.544 73.3069 181.219C73.9837 178.341 73.0482 176.515 72.1442 175.49ZM45.8316 188.358L50.2376 170.002H60.008C62.0089 170.002 64.1936 170.984 64.8038 173.116H54.4258L50.6545 188.358H45.8316ZM64.884 175.301C64.8541 175.524 64.8158 175.737 64.769 175.937C63.9177 179.553 61.315 181.311 56.8122 181.311H54.8561L56.343 175.301H64.884ZM70.9624 180.761C70.1125 184.369 67.0292 186.61 62.9159 186.61H58.085L56.2267 193.603H51.8148L54.3155 183.496H56.8122C59.5244 183.496 61.7764 182.919 63.5058 181.781C65.3429 180.572 66.5567 178.76 67.1137 176.394C67.1891 176.072 67.2465 175.729 67.2874 175.37C68.5313 175.573 69.605 176.098 70.275 176.858C71.1159 177.812 71.3471 179.125 70.9624 180.761Z" fill="#007EFF"/>
</g>
<path d="M109.93 173.121V162.107H114.005C114.887 162.107 115.616 162.254 116.192 162.548C116.769 162.842 117.199 163.245 117.483 163.759C117.766 164.273 117.907 164.85 117.907 165.49C117.907 166.098 117.771 166.66 117.498 167.174C117.226 167.677 116.801 168.086 116.224 168.401C115.647 168.705 114.908 168.857 114.005 168.857H111.944V173.121H109.93ZM111.944 167.221H113.88C114.582 167.221 115.086 167.069 115.39 166.764C115.705 166.45 115.862 166.025 115.862 165.49C115.862 164.945 115.705 164.52 115.39 164.216C115.086 163.901 114.582 163.744 113.88 163.744H111.944V167.221ZM121.639 173.31C120.968 173.31 120.417 173.205 119.987 172.995C119.557 172.775 119.237 172.486 119.027 172.13C118.817 171.773 118.713 171.38 118.713 170.95C118.713 170.226 118.996 169.638 119.562 169.187C120.129 168.736 120.978 168.511 122.111 168.511H124.093V168.322C124.093 167.787 123.941 167.394 123.637 167.142C123.333 166.89 122.955 166.764 122.504 166.764C122.095 166.764 121.739 166.864 121.434 167.063C121.13 167.252 120.941 167.535 120.868 167.913H118.901C118.954 167.347 119.143 166.854 119.468 166.434C119.803 166.014 120.233 165.695 120.758 165.474C121.282 165.244 121.87 165.128 122.52 165.128C123.632 165.128 124.508 165.406 125.148 165.962C125.787 166.518 126.107 167.305 126.107 168.322V173.121H124.392L124.204 171.862C123.973 172.282 123.648 172.628 123.228 172.901C122.819 173.173 122.289 173.31 121.639 173.31ZM122.095 171.736C122.672 171.736 123.118 171.547 123.433 171.17C123.758 170.792 123.962 170.325 124.046 169.77H122.331C121.796 169.77 121.413 169.869 121.183 170.069C120.952 170.257 120.837 170.493 120.837 170.777C120.837 171.081 120.952 171.317 121.183 171.485C121.413 171.652 121.718 171.736 122.095 171.736ZM128.743 176.582L130.553 172.602H130.081L127.044 165.317H129.231L131.418 170.808L133.699 165.317H135.839L130.883 176.582H128.743ZM137.156 176.582V165.317H138.949L139.17 166.434C139.421 166.088 139.752 165.784 140.161 165.522C140.581 165.259 141.121 165.128 141.782 165.128C142.516 165.128 143.171 165.306 143.748 165.663C144.325 166.02 144.781 166.507 145.117 167.126C145.453 167.745 145.621 168.448 145.621 169.235C145.621 170.021 145.453 170.724 145.117 171.343C144.781 171.951 144.325 172.434 143.748 172.79C143.171 173.137 142.516 173.31 141.782 173.31C141.194 173.31 140.68 173.199 140.24 172.979C139.799 172.759 139.442 172.45 139.17 172.051V176.582H137.156ZM141.357 171.547C141.997 171.547 142.526 171.332 142.946 170.902C143.365 170.472 143.575 169.916 143.575 169.235C143.575 168.553 143.365 167.992 142.946 167.551C142.526 167.111 141.997 166.89 141.357 166.89C140.706 166.89 140.171 167.111 139.752 167.551C139.343 167.981 139.138 168.537 139.138 169.219C139.138 169.901 139.343 170.462 139.752 170.902C140.171 171.332 140.706 171.547 141.357 171.547ZM150.11 173.31C149.439 173.31 148.888 173.205 148.458 172.995C148.028 172.775 147.708 172.486 147.498 172.13C147.288 171.773 147.184 171.38 147.184 170.95C147.184 170.226 147.467 169.638 148.033 169.187C148.6 168.736 149.449 168.511 150.582 168.511H152.564V168.322C152.564 167.787 152.412 167.394 152.108 167.142C151.804 166.89 151.426 166.764 150.975 166.764C150.566 166.764 150.21 166.864 149.905 167.063C149.601 167.252 149.412 167.535 149.339 167.913H147.372C147.425 167.347 147.614 166.854 147.939 166.434C148.274 166.014 148.704 165.695 149.229 165.474C149.753 165.244 150.341 165.128 150.991 165.128C152.103 165.128 152.979 165.406 153.619 165.962C154.258 166.518 154.578 167.305 154.578 168.322V173.121H152.863L152.675 171.862C152.444 172.282 152.119 172.628 151.699 172.901C151.29 173.173 150.76 173.31 150.11 173.31ZM150.566 171.736C151.143 171.736 151.589 171.547 151.904 171.17C152.229 170.792 152.433 170.325 152.517 169.77H150.802C150.267 169.77 149.884 169.869 149.654 170.069C149.423 170.257 149.308 170.493 149.308 170.777C149.308 171.081 149.423 171.317 149.654 171.485C149.884 171.652 150.189 171.736 150.566 171.736ZM156.5 173.121V161.793H158.514V173.121H156.5Z" fill="#333333"/>
<path d="M109.766 197.114V188.547H114.979V189.392H110.794V192.402H114.355V193.234H110.794V197.114H109.766ZM116.242 197.114V191.044H117.172L117.258 192.206C117.445 191.807 117.731 191.488 118.114 191.252C118.498 191.015 118.971 190.897 119.534 190.897V191.974H119.252C118.893 191.974 118.563 192.039 118.261 192.17C117.959 192.292 117.718 192.504 117.539 192.806C117.36 193.108 117.27 193.524 117.27 194.054V197.114H116.242ZM123.189 197.26C122.61 197.26 122.096 197.13 121.647 196.869C121.199 196.6 120.844 196.228 120.583 195.755C120.33 195.282 120.203 194.723 120.203 194.079C120.203 193.442 120.33 192.888 120.583 192.414C120.836 191.933 121.186 191.562 121.635 191.301C122.092 191.032 122.618 190.897 123.214 190.897C123.801 190.897 124.307 191.032 124.731 191.301C125.164 191.562 125.494 191.909 125.722 192.341C125.951 192.773 126.065 193.238 126.065 193.736C126.065 193.826 126.061 193.916 126.053 194.005C126.053 194.095 126.053 194.197 126.053 194.311H121.219C121.244 194.776 121.35 195.164 121.537 195.474C121.733 195.776 121.974 196.004 122.259 196.159C122.553 196.314 122.863 196.392 123.189 196.392C123.613 196.392 123.968 196.294 124.254 196.098C124.539 195.902 124.747 195.637 124.878 195.302H125.894C125.731 195.865 125.416 196.334 124.951 196.71C124.495 197.077 123.907 197.26 123.189 197.26ZM123.189 191.766C122.7 191.766 122.263 191.917 121.88 192.219C121.505 192.512 121.288 192.945 121.231 193.516H125.049C125.025 192.969 124.837 192.541 124.486 192.231C124.136 191.921 123.703 191.766 123.189 191.766ZM130.156 197.26C129.577 197.26 129.063 197.13 128.614 196.869C128.166 196.6 127.811 196.228 127.55 195.755C127.297 195.282 127.17 194.723 127.17 194.079C127.17 193.442 127.297 192.888 127.55 192.414C127.803 191.933 128.154 191.562 128.602 191.301C129.059 191.032 129.585 190.897 130.181 190.897C130.768 190.897 131.274 191.032 131.698 191.301C132.131 191.562 132.461 191.909 132.689 192.341C132.918 192.773 133.032 193.238 133.032 193.736C133.032 193.826 133.028 193.916 133.02 194.005C133.02 194.095 133.02 194.197 133.02 194.311H128.186C128.211 194.776 128.317 195.164 128.504 195.474C128.7 195.776 128.941 196.004 129.226 196.159C129.52 196.314 129.83 196.392 130.156 196.392C130.581 196.392 130.935 196.294 131.221 196.098C131.507 195.902 131.715 195.637 131.845 195.302H132.861C132.698 195.865 132.384 196.334 131.918 196.71C131.462 197.077 130.874 197.26 130.156 197.26ZM130.156 191.766C129.667 191.766 129.23 191.917 128.847 192.219C128.472 192.512 128.255 192.945 128.198 193.516H132.016C131.992 192.969 131.804 192.541 131.453 192.231C131.103 191.921 130.67 191.766 130.156 191.766ZM134.395 197.114V188.303H135.422V197.114H134.395ZM139.126 197.26C138.621 197.26 138.2 197.175 137.866 197.003C137.531 196.832 137.283 196.604 137.12 196.318C136.956 196.033 136.875 195.723 136.875 195.388C136.875 194.768 137.111 194.291 137.585 193.956C138.058 193.622 138.702 193.455 139.518 193.455H141.158V193.381C141.158 192.851 141.019 192.451 140.742 192.182C140.464 191.905 140.093 191.766 139.628 191.766C139.228 191.766 138.882 191.868 138.588 192.072C138.302 192.268 138.123 192.557 138.05 192.941H136.997C137.038 192.5 137.185 192.129 137.438 191.827C137.699 191.525 138.021 191.297 138.404 191.142C138.788 190.979 139.196 190.897 139.628 190.897C140.477 190.897 141.113 191.125 141.537 191.582C141.97 192.031 142.186 192.631 142.186 193.381V197.114H141.268L141.207 196.024C141.035 196.367 140.783 196.661 140.448 196.905C140.122 197.142 139.681 197.26 139.126 197.26ZM139.285 196.392C139.677 196.392 140.012 196.29 140.289 196.086C140.574 195.882 140.791 195.617 140.938 195.29C141.084 194.964 141.158 194.621 141.158 194.262V194.25H139.604C139 194.25 138.572 194.356 138.319 194.568C138.074 194.772 137.952 195.029 137.952 195.339C137.952 195.657 138.066 195.914 138.294 196.11C138.531 196.298 138.861 196.392 139.285 196.392ZM143.728 197.114V191.044H144.658L144.719 192.133C144.915 191.75 145.196 191.448 145.563 191.227C145.93 191.007 146.347 190.897 146.812 190.897C147.529 190.897 148.101 191.117 148.525 191.558C148.957 191.99 149.173 192.659 149.173 193.565V197.114H148.145V193.675C148.145 192.41 147.623 191.778 146.579 191.778C146.057 191.778 145.62 191.97 145.27 192.353C144.927 192.729 144.756 193.267 144.756 193.969V197.114H143.728ZM153.521 197.26C152.942 197.26 152.419 197.13 151.954 196.869C151.498 196.6 151.135 196.228 150.865 195.755C150.604 195.274 150.474 194.715 150.474 194.079C150.474 193.442 150.604 192.888 150.865 192.414C151.135 191.933 151.498 191.562 151.954 191.301C152.419 191.032 152.942 190.897 153.521 190.897C154.239 190.897 154.842 191.085 155.332 191.46C155.83 191.835 156.144 192.337 156.274 192.965H155.222C155.14 192.59 154.94 192.3 154.622 192.096C154.304 191.884 153.933 191.778 153.509 191.778C153.166 191.778 152.844 191.864 152.542 192.035C152.24 192.206 151.995 192.463 151.808 192.806C151.62 193.149 151.526 193.573 151.526 194.079C151.526 194.584 151.62 195.009 151.808 195.351C151.995 195.694 152.24 195.955 152.542 196.135C152.844 196.306 153.166 196.392 153.509 196.392C153.933 196.392 154.304 196.29 154.622 196.086C154.94 195.873 155.14 195.576 155.222 195.192H156.274C156.152 195.804 155.842 196.302 155.344 196.685C154.847 197.069 154.239 197.26 153.521 197.26ZM160.439 197.26C159.859 197.26 159.345 197.13 158.897 196.869C158.448 196.6 158.093 196.228 157.832 195.755C157.579 195.282 157.453 194.723 157.453 194.079C157.453 193.442 157.579 192.888 157.832 192.414C158.085 191.933 158.436 191.562 158.885 191.301C159.341 191.032 159.868 190.897 160.463 190.897C161.051 190.897 161.556 191.032 161.981 191.301C162.413 191.562 162.743 191.909 162.972 192.341C163.2 192.773 163.314 193.238 163.314 193.736C163.314 193.826 163.31 193.916 163.302 194.005C163.302 194.095 163.302 194.197 163.302 194.311H158.468C158.493 194.776 158.599 195.164 158.787 195.474C158.982 195.776 159.223 196.004 159.509 196.159C159.802 196.314 160.112 196.392 160.439 196.392C160.863 196.392 161.218 196.294 161.503 196.098C161.789 195.902 161.997 195.637 162.127 195.302H163.143C162.98 195.865 162.666 196.334 162.201 196.71C161.744 197.077 161.157 197.26 160.439 197.26ZM160.439 191.766C159.949 191.766 159.513 191.917 159.129 192.219C158.754 192.512 158.538 192.945 158.481 193.516H162.299C162.274 192.969 162.087 192.541 161.736 192.231C161.385 191.921 160.953 191.766 160.439 191.766Z" fill="#999999"/>
<path d="M310.752 188.556V187.345C309.734 187.229 308.906 186.873 308.266 186.275C307.626 185.677 307.296 184.875 307.275 183.868H309.399C309.42 184.287 309.546 184.654 309.776 184.969C310.018 185.284 310.343 185.499 310.752 185.614V182.294C310.657 182.263 310.558 182.231 310.453 182.2C310.358 182.168 310.259 182.137 310.154 182.105C309.304 181.812 308.654 181.434 308.203 180.973C307.762 180.511 307.542 179.898 307.542 179.132C307.532 178.23 307.825 177.506 308.423 176.961C309.021 176.405 309.797 176.085 310.752 176.001V174.726H311.806V176.017C312.75 176.111 313.51 176.441 314.087 177.008C314.675 177.564 314.984 178.282 315.016 179.163H312.86C312.85 178.859 312.75 178.581 312.561 178.329C312.383 178.067 312.131 177.884 311.806 177.779V180.705C311.89 180.737 311.974 180.768 312.058 180.8C312.142 180.821 312.226 180.847 312.309 180.878C312.855 181.067 313.353 181.287 313.804 181.539C314.255 181.791 314.617 182.126 314.89 182.546C315.162 182.955 315.299 183.485 315.299 184.135C315.299 184.681 315.162 185.189 314.89 185.661C314.628 186.133 314.234 186.527 313.71 186.841C313.196 187.145 312.561 187.319 311.806 187.361V188.556H310.752ZM309.65 178.99C309.65 179.326 309.75 179.599 309.949 179.808C310.149 180.008 310.416 180.181 310.752 180.328V177.716C310.427 177.779 310.159 177.92 309.949 178.141C309.75 178.361 309.65 178.644 309.65 178.99ZM313.159 184.277C313.159 183.857 313.033 183.527 312.781 183.286C312.53 183.044 312.205 182.84 311.806 182.672V185.661C312.226 185.598 312.556 185.446 312.797 185.205C313.038 184.964 313.159 184.654 313.159 184.277ZM322.091 187.187V185.142H316.663V183.537L321.823 176.174H324.105V183.396H325.552V185.142H324.105V187.187H322.091ZM318.818 183.396H322.217V178.392L318.818 183.396ZM331.084 187.376C330.277 187.376 329.579 187.235 328.992 186.951C328.415 186.668 327.959 186.28 327.623 185.787C327.298 185.284 327.109 184.717 327.057 184.088H329.023C329.118 184.539 329.348 184.917 329.716 185.221C330.083 185.514 330.539 185.661 331.084 185.661C331.672 185.661 332.149 185.446 332.516 185.016C332.894 184.586 333.083 184.051 333.083 183.411C333.083 182.751 332.894 182.226 332.516 181.838C332.149 181.45 331.682 181.256 331.116 181.256C330.644 181.256 330.235 181.371 329.889 181.602C329.542 181.833 329.296 182.121 329.149 182.467H327.214L328.158 176.174H334.263V177.936H329.668L329.165 180.485C329.396 180.233 329.71 180.029 330.109 179.871C330.507 179.703 330.953 179.62 331.446 179.62C332.233 179.62 332.889 179.798 333.413 180.155C333.937 180.501 334.336 180.962 334.609 181.539C334.881 182.105 335.018 182.724 335.018 183.396C335.018 184.161 334.85 184.843 334.514 185.441C334.189 186.039 333.728 186.511 333.13 186.857C332.542 187.203 331.861 187.376 331.084 187.376ZM341.407 187.376C340.39 187.376 339.519 187.14 338.796 186.668C338.072 186.186 337.511 185.52 337.112 184.67C336.724 183.81 336.53 182.814 336.53 181.681C336.53 180.558 336.724 179.567 337.112 178.707C337.511 177.847 338.072 177.181 338.796 176.709C339.519 176.226 340.39 175.985 341.407 175.985C342.425 175.985 343.295 176.226 344.019 176.709C344.743 177.181 345.299 177.847 345.687 178.707C346.086 179.567 346.285 180.558 346.285 181.681C346.285 182.814 346.086 183.81 345.687 184.67C345.299 185.52 344.743 186.186 344.019 186.668C343.295 187.14 342.425 187.376 341.407 187.376ZM341.407 185.567C342.236 185.567 342.913 185.221 343.437 184.528C343.962 183.836 344.224 182.887 344.224 181.681C344.224 180.474 343.962 179.525 343.437 178.833C342.913 178.141 342.236 177.794 341.407 177.794C340.568 177.794 339.887 178.141 339.362 178.833C338.848 179.525 338.591 180.474 338.591 181.681C338.591 182.887 338.848 183.836 339.362 184.528C339.887 185.221 340.568 185.567 341.407 185.567Z" fill="#007EFF"/>
<rect opacity="0.1" x="31.3407" y="87.4009" width="53.7088" height="48.9489" rx="10.4891" fill="#007EFF"/>
<path fill-rule="evenodd" clip-rule="evenodd" d="M51.8012 104.883V103.135C51.8012 102.362 52.1376 101.621 52.7373 101.075C53.3371 100.529 54.1504 100.221 54.9982 100.221H61.3921C62.2399 100.221 63.052 100.529 63.6517 101.075C64.2515 101.621 64.5891 102.362 64.5891 103.135V104.883H67.786C68.6338 104.883 69.4459 105.19 70.0456 105.737C70.6454 106.282 70.983 107.024 70.983 107.796V120.616C70.983 121.389 70.6454 122.13 70.0456 122.677C69.4459 123.223 68.6338 123.53 67.786 123.53C63.4509 123.53 52.9394 123.53 48.6043 123.53C47.7565 123.53 46.9432 123.223 46.3434 122.677C45.7437 122.13 45.4073 121.389 45.4073 120.616V107.796C45.4073 107.024 45.7437 106.282 46.3434 105.737C46.9432 105.19 47.7565 104.883 48.6043 104.883H51.8012ZM47.9649 112.328V120.616C47.9649 120.771 48.0314 120.919 48.1516 121.029C48.2718 121.138 48.4342 121.199 48.6043 121.199H67.786C67.9548 121.199 68.1172 121.138 68.2374 121.029C68.3576 120.919 68.4254 120.771 68.4254 120.616V112.409L58.589 115.316C58.3294 115.392 58.0494 115.392 57.7898 115.312L47.9649 112.328ZM68.4254 109.958V107.796C68.4254 107.642 68.3576 107.494 68.2374 107.385C68.1172 107.275 67.9548 107.214 67.786 107.214C63.4509 107.214 52.9394 107.214 48.6043 107.214C48.4342 107.214 48.2718 107.275 48.1516 107.385C48.0314 107.494 47.9649 107.642 47.9649 107.796V109.871L58.2003 112.98L68.4254 109.958ZM62.0315 104.883V103.135C62.0315 102.981 61.9637 102.833 61.8435 102.723C61.7233 102.614 61.5609 102.552 61.3921 102.552C59.5634 102.552 56.8256 102.552 54.9982 102.552C54.8281 102.552 54.6657 102.614 54.5455 102.723C54.4253 102.833 54.3588 102.981 54.3588 103.135V104.883H62.0315Z" fill="#007EFF"/>
<path d="M114.384 103.383C113.576 103.383 112.863 103.246 112.244 102.974C111.625 102.69 111.138 102.292 110.781 101.778C110.424 101.253 110.241 100.619 110.23 99.874H112.354C112.375 100.388 112.559 100.823 112.905 101.18C113.262 101.526 113.749 101.699 114.368 101.699C114.903 101.699 115.328 101.573 115.643 101.322C115.957 101.059 116.115 100.713 116.115 100.283C116.115 99.8321 115.973 99.4807 115.69 99.229C115.417 98.9772 115.05 98.7727 114.588 98.6153C114.127 98.458 113.634 98.2902 113.109 98.1119C112.26 97.8182 111.61 97.4406 111.159 96.9791C110.718 96.5175 110.498 95.9039 110.498 95.1382C110.487 94.4879 110.639 93.932 110.954 93.4705C111.279 92.9985 111.72 92.6366 112.276 92.3848C112.832 92.1226 113.471 91.9915 114.195 91.9915C114.929 91.9915 115.574 92.1226 116.13 92.3848C116.697 92.6471 117.137 93.0142 117.452 93.4862C117.777 93.9582 117.95 94.5194 117.971 95.1697H115.816C115.805 94.7816 115.653 94.4407 115.359 94.147C115.076 93.8428 114.678 93.6907 114.164 93.6907C113.723 93.6802 113.351 93.7904 113.047 94.0211C112.753 94.2414 112.606 94.5666 112.606 94.9966C112.606 95.3637 112.721 95.6574 112.952 95.8777C113.183 96.0875 113.498 96.2658 113.896 96.4126C114.295 96.5595 114.751 96.7168 115.265 96.8847C115.81 97.0735 116.309 97.2937 116.76 97.5455C117.211 97.7972 117.573 98.1328 117.845 98.5524C118.118 98.9615 118.254 99.4912 118.254 100.142C118.254 100.718 118.108 101.253 117.814 101.746C117.52 102.239 117.085 102.638 116.508 102.942C115.931 103.236 115.223 103.383 114.384 103.383ZM122.655 103.383C121.983 103.383 121.433 103.278 121.003 103.068C120.573 102.848 120.253 102.559 120.043 102.203C119.833 101.846 119.728 101.453 119.728 101.023C119.728 100.299 120.012 99.7115 120.578 99.2604C121.144 98.8094 121.994 98.5839 123.127 98.5839H125.109V98.3951C125.109 97.8601 124.957 97.4668 124.653 97.2151C124.349 96.9633 123.971 96.8375 123.52 96.8375C123.111 96.8375 122.754 96.9371 122.45 97.1364C122.146 97.3252 121.957 97.6084 121.884 97.986H119.917C119.97 97.4196 120.158 96.9266 120.484 96.507C120.819 96.0875 121.249 95.7676 121.774 95.5473C122.298 95.3165 122.886 95.2012 123.536 95.2012C124.648 95.2012 125.523 95.4791 126.163 96.035C126.803 96.591 127.123 97.3776 127.123 98.3951V103.194H125.408L125.219 101.935C124.989 102.355 124.663 102.701 124.244 102.974C123.835 103.246 123.305 103.383 122.655 103.383ZM123.111 101.809C123.688 101.809 124.134 101.62 124.448 101.243C124.774 100.865 124.978 100.398 125.062 99.8426H123.347C122.812 99.8426 122.429 99.9422 122.198 100.142C121.968 100.33 121.852 100.566 121.852 100.85C121.852 101.154 121.968 101.39 122.198 101.558C122.429 101.725 122.733 101.809 123.111 101.809ZM129.045 103.194V91.8656H131.059V103.194H129.045ZM135.807 103.383C135.136 103.383 134.585 103.278 134.155 103.068C133.725 102.848 133.405 102.559 133.195 102.203C132.985 101.846 132.881 101.453 132.881 101.023C132.881 100.299 133.164 99.7115 133.73 99.2604C134.297 98.8094 135.146 98.5839 136.279 98.5839H138.261V98.3951C138.261 97.8601 138.109 97.4668 137.805 97.2151C137.501 96.9633 137.123 96.8375 136.672 96.8375C136.263 96.8375 135.907 96.9371 135.602 97.1364C135.298 97.3252 135.11 97.6084 135.036 97.986H133.069C133.122 97.4196 133.311 96.9266 133.636 96.507C133.971 96.0875 134.401 95.7676 134.926 95.5473C135.45 95.3165 136.038 95.2012 136.688 95.2012C137.8 95.2012 138.676 95.4791 139.316 96.035C139.955 96.591 140.275 97.3776 140.275 98.3951V103.194H138.56L138.372 101.935C138.141 102.355 137.816 102.701 137.396 102.974C136.987 103.246 136.457 103.383 135.807 103.383ZM136.263 101.809C136.84 101.809 137.286 101.62 137.601 101.243C137.926 100.865 138.13 100.398 138.214 99.8426H136.499C135.964 99.8426 135.582 99.9422 135.351 100.142C135.12 100.33 135.005 100.566 135.005 100.85C135.005 101.154 135.12 101.39 135.351 101.558C135.582 101.725 135.886 101.809 136.263 101.809ZM142.197 103.194V95.39H143.991L144.18 96.8532C144.463 96.3497 144.846 95.9511 145.328 95.6574C145.821 95.3533 146.398 95.2012 147.059 95.2012V97.3252H146.492C146.052 97.3252 145.659 97.3934 145.312 97.5297C144.966 97.6661 144.694 97.9021 144.494 98.2377C144.305 98.5734 144.211 99.0402 144.211 99.638V103.194H142.197ZM149.411 106.655L151.22 102.675H150.748L147.712 95.39H149.899L152.086 100.881L154.367 95.39H156.507L151.551 106.655H149.411Z" fill="#333333"/>
<path d="M114.216 127.333C113.376 127.333 112.65 127.15 112.038 126.783C111.434 126.407 110.965 125.889 110.631 125.229C110.296 124.56 110.129 123.785 110.129 122.903C110.129 122.031 110.296 121.264 110.631 120.603C110.965 119.934 111.434 119.412 112.038 119.037C112.65 118.661 113.376 118.474 114.216 118.474C115.195 118.474 115.99 118.71 116.602 119.183C117.222 119.648 117.618 120.301 117.789 121.141H116.651C116.521 120.611 116.252 120.187 115.844 119.869C115.444 119.542 114.901 119.379 114.216 119.379C113.604 119.379 113.07 119.522 112.613 119.807C112.156 120.085 111.801 120.489 111.548 121.019C111.304 121.541 111.181 122.169 111.181 122.903C111.181 123.638 111.304 124.27 111.548 124.8C111.801 125.322 112.156 125.726 112.613 126.012C113.07 126.289 113.604 126.428 114.216 126.428C114.901 126.428 115.444 126.273 115.844 125.963C116.252 125.645 116.521 125.224 116.651 124.702H117.789C117.618 125.526 117.222 126.171 116.602 126.636C115.99 127.101 115.195 127.333 114.216 127.333ZM121.42 127.333C120.703 127.333 120.131 127.117 119.707 126.685C119.283 126.244 119.071 125.571 119.071 124.666V121.117H120.099V124.556C120.099 125.82 120.617 126.452 121.653 126.452C122.183 126.452 122.62 126.265 122.962 125.889C123.313 125.506 123.489 124.963 123.489 124.262V121.117H124.516V127.187H123.586L123.513 126.097C123.325 126.481 123.044 126.783 122.669 127.003C122.302 127.223 121.885 127.333 121.42 127.333ZM126.208 127.187V121.117H127.139L127.224 122.279C127.412 121.88 127.697 121.561 128.081 121.325C128.464 121.088 128.937 120.97 129.5 120.97V122.047H129.219C128.86 122.047 128.529 122.112 128.228 122.243C127.926 122.365 127.685 122.577 127.506 122.879C127.326 123.181 127.236 123.597 127.236 124.127V127.187H126.208ZM130.654 127.187V121.117H131.584L131.67 122.279C131.857 121.88 132.143 121.561 132.526 121.325C132.91 121.088 133.383 120.97 133.946 120.97V122.047H133.664C133.305 122.047 132.975 122.112 132.673 122.243C132.371 122.365 132.131 122.577 131.951 122.879C131.772 123.181 131.682 123.597 131.682 124.127V127.187H130.654ZM137.601 127.333C137.022 127.333 136.508 127.203 136.06 126.942C135.611 126.673 135.256 126.301 134.995 125.828C134.742 125.355 134.616 124.796 134.616 124.152C134.616 123.515 134.742 122.961 134.995 122.487C135.248 122.006 135.599 121.635 136.047 121.374C136.504 121.105 137.03 120.97 137.626 120.97C138.213 120.97 138.719 121.105 139.143 121.374C139.576 121.635 139.906 121.982 140.135 122.414C140.363 122.846 140.477 123.311 140.477 123.809C140.477 123.899 140.473 123.989 140.465 124.078C140.465 124.168 140.465 124.27 140.465 124.384H135.631C135.656 124.849 135.762 125.237 135.949 125.547C136.145 125.849 136.386 126.077 136.671 126.232C136.965 126.387 137.275 126.465 137.601 126.465C138.026 126.465 138.381 126.367 138.666 126.171C138.952 125.975 139.16 125.71 139.29 125.375H140.306C140.143 125.938 139.829 126.407 139.364 126.783C138.907 127.15 138.319 127.333 137.601 127.333ZM137.601 121.839C137.112 121.839 136.675 121.99 136.292 122.292C135.917 122.585 135.701 123.018 135.643 123.589H139.461C139.437 123.042 139.249 122.614 138.899 122.304C138.548 121.994 138.115 121.839 137.601 121.839ZM141.84 127.187V121.117H142.77L142.831 122.206C143.027 121.823 143.308 121.521 143.675 121.3C144.042 121.08 144.458 120.97 144.923 120.97C145.641 120.97 146.212 121.19 146.637 121.631C147.069 122.063 147.285 122.732 147.285 123.638V127.187H146.257V123.748C146.257 122.483 145.735 121.851 144.691 121.851C144.169 121.851 143.732 122.043 143.382 122.426C143.039 122.802 142.868 123.34 142.868 124.042V127.187H141.84ZM151.241 127.187C150.686 127.187 150.25 127.052 149.932 126.783C149.614 126.513 149.454 126.028 149.454 125.326V121.986H148.402V121.117H149.454L149.589 119.661H150.482V121.117H152.269V121.986H150.482V125.326C150.482 125.71 150.56 125.971 150.715 126.11C150.87 126.24 151.143 126.305 151.535 126.305H152.171V127.187H151.241ZM158.784 127.333C158.009 127.333 157.401 127.117 156.96 126.685C156.52 126.252 156.3 125.653 156.3 124.886H157.34C157.34 125.318 157.446 125.681 157.658 125.975C157.87 126.269 158.241 126.416 158.771 126.416C159.285 126.416 159.64 126.273 159.836 125.987C160.04 125.702 160.142 125.347 160.142 124.923V118.62H161.17V124.923C161.17 125.681 160.958 126.273 160.534 126.697C160.118 127.121 159.534 127.333 158.784 127.333ZM165.686 127.333C165.115 127.333 164.601 127.203 164.144 126.942C163.687 126.681 163.324 126.314 163.055 125.84C162.794 125.359 162.663 124.796 162.663 124.152C162.663 123.507 162.798 122.948 163.067 122.475C163.336 121.994 163.699 121.623 164.156 121.362C164.621 121.101 165.139 120.97 165.71 120.97C166.281 120.97 166.795 121.101 167.252 121.362C167.709 121.623 168.068 121.994 168.329 122.475C168.598 122.948 168.733 123.507 168.733 124.152C168.733 124.796 168.598 125.359 168.329 125.84C168.06 126.314 167.693 126.681 167.228 126.942C166.771 127.203 166.257 127.333 165.686 127.333ZM165.686 126.452C166.037 126.452 166.363 126.367 166.665 126.195C166.967 126.024 167.211 125.767 167.399 125.424C167.587 125.082 167.68 124.657 167.68 124.152C167.68 123.646 167.587 123.222 167.399 122.879C167.22 122.536 166.979 122.279 166.677 122.108C166.375 121.937 166.053 121.851 165.71 121.851C165.359 121.851 165.033 121.937 164.731 122.108C164.429 122.279 164.185 122.536 163.997 122.879C163.809 123.222 163.716 123.646 163.716 124.152C163.716 124.657 163.809 125.082 163.997 125.424C164.185 125.767 164.425 126.024 164.719 126.195C165.021 126.367 165.343 126.452 165.686 126.452ZM173.405 127.333C172.907 127.333 172.463 127.231 172.071 127.027C171.688 126.823 171.394 126.538 171.19 126.171L171.092 127.187H170.162V118.376H171.19V122.12C171.386 121.827 171.663 121.561 172.022 121.325C172.389 121.088 172.854 120.97 173.417 120.97C174.021 120.97 174.547 121.109 174.996 121.386C175.445 121.663 175.791 122.043 176.036 122.524C176.289 123.005 176.415 123.552 176.415 124.164C176.415 124.776 176.289 125.322 176.036 125.804C175.791 126.277 175.44 126.652 174.984 126.93C174.535 127.199 174.009 127.333 173.405 127.333ZM173.295 126.44C173.703 126.44 174.062 126.346 174.372 126.159C174.682 125.963 174.926 125.694 175.106 125.351C175.285 125.008 175.375 124.609 175.375 124.152C175.375 123.695 175.285 123.295 175.106 122.952C174.926 122.61 174.682 122.345 174.372 122.157C174.062 121.961 173.703 121.863 173.295 121.863C172.887 121.863 172.528 121.961 172.218 122.157C171.908 122.345 171.663 122.61 171.484 122.952C171.304 123.295 171.215 123.695 171.215 124.152C171.215 124.609 171.304 125.008 171.484 125.351C171.663 125.694 171.908 125.963 172.218 126.159C172.528 126.346 172.887 126.44 173.295 126.44Z" fill="#999999"/>
<path d="M299.243 118.629V117.418C298.225 117.302 297.397 116.946 296.757 116.348C296.117 115.75 295.787 114.948 295.766 113.941H297.89C297.911 114.36 298.037 114.727 298.267 115.042C298.509 115.357 298.834 115.572 299.243 115.687V112.367C299.148 112.336 299.049 112.304 298.944 112.273C298.849 112.241 298.75 112.21 298.645 112.178C297.795 111.885 297.145 111.507 296.694 111.046C296.253 110.584 296.033 109.971 296.033 109.205C296.023 108.303 296.316 107.579 296.914 107.034C297.512 106.478 298.288 106.158 299.243 106.074V104.799H300.297V106.09C301.241 106.184 302.001 106.514 302.578 107.081C303.166 107.637 303.475 108.355 303.507 109.236H301.351C301.341 108.932 301.241 108.654 301.052 108.402C300.874 108.14 300.622 107.957 300.297 107.852V110.778C300.381 110.81 300.465 110.841 300.549 110.873C300.633 110.894 300.716 110.92 300.8 110.951C301.346 111.14 301.844 111.36 302.295 111.612C302.746 111.864 303.108 112.199 303.381 112.619C303.653 113.028 303.79 113.558 303.79 114.208C303.79 114.754 303.653 115.262 303.381 115.734C303.118 116.206 302.725 116.6 302.201 116.914C301.687 117.218 301.052 117.392 300.297 117.434V118.629H299.243ZM298.141 109.063C298.141 109.399 298.241 109.672 298.44 109.881C298.64 110.081 298.907 110.254 299.243 110.401V107.789C298.918 107.852 298.65 107.993 298.44 108.214C298.241 108.434 298.141 108.717 298.141 109.063ZM301.65 114.35C301.65 113.93 301.524 113.6 301.272 113.359C301.021 113.117 300.696 112.913 300.297 112.745V115.734C300.716 115.671 301.047 115.519 301.288 115.278C301.529 115.037 301.65 114.727 301.65 114.35ZM305.279 117.26V115.797C305.951 115.241 306.601 114.691 307.23 114.145C307.87 113.6 308.437 113.06 308.93 112.525C309.433 111.99 309.832 111.47 310.125 110.967C310.43 110.453 310.582 109.955 310.582 109.472C310.582 109.021 310.456 108.623 310.204 108.277C309.963 107.93 309.559 107.757 308.993 107.757C308.416 107.757 307.98 107.946 307.687 108.324C307.393 108.701 307.246 109.158 307.246 109.693H305.295C305.316 108.885 305.494 108.214 305.83 107.679C306.166 107.133 306.612 106.729 307.167 106.467C307.723 106.194 308.347 106.058 309.04 106.058C310.162 106.058 311.033 106.368 311.652 106.986C312.281 107.595 312.596 108.387 312.596 109.362C312.596 109.971 312.454 110.563 312.171 111.14C311.898 111.717 311.536 112.273 311.085 112.808C310.634 113.343 310.146 113.846 309.622 114.318C309.097 114.78 308.589 115.21 308.096 115.608H312.863V117.26H305.279ZM318.974 117.449C317.957 117.449 317.086 117.213 316.362 116.741C315.639 116.259 315.077 115.593 314.679 114.743C314.291 113.883 314.097 112.887 314.097 111.754C314.097 110.631 314.291 109.64 314.679 108.78C315.077 107.92 315.639 107.254 316.362 106.782C317.086 106.299 317.957 106.058 318.974 106.058C319.991 106.058 320.862 106.299 321.586 106.782C322.31 107.254 322.865 107.92 323.254 108.78C323.652 109.64 323.851 110.631 323.851 111.754C323.851 112.887 323.652 113.883 323.254 114.743C322.865 115.593 322.31 116.259 321.586 116.741C320.862 117.213 319.991 117.449 318.974 117.449ZM318.974 115.64C319.803 115.64 320.479 115.294 321.004 114.601C321.528 113.909 321.79 112.96 321.79 111.754C321.79 110.547 321.528 109.598 321.004 108.906C320.479 108.214 319.803 107.867 318.974 107.867C318.135 107.867 317.453 108.214 316.929 108.906C316.415 109.598 316.158 110.547 316.158 111.754C316.158 112.96 316.415 113.909 316.929 114.601C317.453 115.294 318.135 115.64 318.974 115.64ZM330.144 117.449C329.127 117.449 328.256 117.213 327.532 116.741C326.809 116.259 326.248 115.593 325.849 114.743C325.461 113.883 325.267 112.887 325.267 111.754C325.267 110.631 325.461 109.64 325.849 108.78C326.248 107.92 326.809 107.254 327.532 106.782C328.256 106.299 329.127 106.058 330.144 106.058C331.162 106.058 332.032 106.299 332.756 106.782C333.48 107.254 334.036 107.92 334.424 108.78C334.822 109.64 335.022 110.631 335.022 111.754C335.022 112.887 334.822 113.883 334.424 114.743C334.036 115.593 333.48 116.259 332.756 116.741C332.032 117.213 331.162 117.449 330.144 117.449ZM330.144 115.64C330.973 115.64 331.649 115.294 332.174 114.601C332.698 113.909 332.961 112.96 332.961 111.754C332.961 110.547 332.698 109.598 332.174 108.906C331.649 108.214 330.973 107.867 330.144 107.867C329.305 107.867 328.623 108.214 328.099 108.906C327.585 109.598 327.328 110.547 327.328 111.754C327.328 112.96 327.585 113.909 328.099 114.601C328.623 115.294 329.305 115.64 330.144 115.64ZM341.314 117.449C340.297 117.449 339.426 117.213 338.703 116.741C337.979 116.259 337.418 115.593 337.019 114.743C336.631 113.883 336.437 112.887 336.437 111.754C336.437 110.631 336.631 109.64 337.019 108.78C337.418 107.92 337.979 107.254 338.703 106.782C339.426 106.299 340.297 106.058 341.314 106.058C342.332 106.058 343.203 106.299 343.926 106.782C344.65 107.254 345.206 107.92 345.594 108.78C345.993 109.64 346.192 110.631 346.192 111.754C346.192 112.887 345.993 113.883 345.594 114.743C345.206 115.593 344.65 116.259 343.926 116.741C343.203 117.213 342.332 117.449 341.314 117.449ZM341.314 115.64C342.143 115.64 342.82 115.294 343.344 114.601C343.869 113.909 344.131 112.96 344.131 111.754C344.131 110.547 343.869 109.598 343.344 108.906C342.82 108.214 342.143 107.867 341.314 107.867C340.475 107.867 339.794 108.214 339.269 108.906C338.755 109.598 338.498 110.547 338.498 111.754C338.498 112.96 338.755 113.909 339.269 114.601C339.794 115.294 340.475 115.64 341.314 115.64Z" fill="#007EFF"/>
<path d="M41.6619 36.2364H32.6413V50.963H41.6619V48.089H36.2286V44.8584H41.0326V42.0892H36.2286V39.1104H41.6619V36.2364ZM43.2776 45.0891C43.2776 48.7813 45.5642 51.1308 48.4172 51.1308C50.1584 51.1308 51.3961 50.3336 52.0464 49.3057V50.963H55.6337V39.2572H52.0464V40.9145C51.4171 39.8865 50.1794 39.0894 48.4382 39.0894C45.5642 39.0894 43.2776 41.397 43.2776 45.0891ZM52.0464 45.1101C52.0464 46.9771 50.8507 48.0051 49.4871 48.0051C48.1445 48.0051 46.9278 46.9562 46.9278 45.0891C46.9278 43.2221 48.1445 42.2151 49.4871 42.2151C50.8507 42.2151 52.0464 43.243 52.0464 45.1101ZM61.8161 45.5297C61.8161 43.5158 62.8021 42.9284 64.5013 42.9284H65.4873V39.1313C63.914 39.1313 62.6343 39.9705 61.8161 41.2082V39.2572H58.2289V50.963H61.8161V45.5297ZM75.2785 50.963H78.8448V44.1241C78.8448 40.9774 77.0407 39.1313 74.3345 39.1313C72.7611 39.1313 71.5025 39.8236 70.7892 40.8096V39.2572H67.2019V50.963H70.7892V44.6066C70.7892 43.0123 71.6703 42.1312 73.0339 42.1312C74.3974 42.1312 75.2785 43.0123 75.2785 44.6066V50.963ZM81.3376 50.963H84.9248V39.2572H81.3376V50.963ZM83.1417 38.0405C84.4004 38.0405 85.2605 37.1804 85.2605 36.1105C85.2605 35.0196 84.4004 34.1595 83.1417 34.1595C81.862 34.1595 81.0019 35.0196 81.0019 36.1105C81.0019 37.1804 81.862 38.0405 83.1417 38.0405ZM95.6011 50.963H99.1673V44.1241C99.1673 40.9774 97.3632 39.1313 94.657 39.1313C93.0837 39.1313 91.825 39.8236 91.1117 40.8096V39.2572H87.5245V50.963H91.1117V44.6066C91.1117 43.0123 91.9928 42.1312 93.3564 42.1312C94.72 42.1312 95.6011 43.0123 95.6011 44.6066V50.963ZM100.947 45.0891C100.947 48.7813 103.233 51.1308 106.107 51.1308C107.828 51.1308 109.065 50.3127 109.716 49.2847V50.942C109.716 52.9139 108.646 53.6272 107.282 53.6272C106.045 53.6272 105.163 53.0608 104.933 52.1797H101.387C101.702 54.9698 103.968 56.732 107.45 56.732C111.499 56.732 113.303 54.0677 113.303 50.942V39.2572H109.716V40.9145C109.086 39.8656 107.828 39.0894 106.107 39.0894C103.233 39.0894 100.947 41.397 100.947 45.0891ZM109.716 45.1101C109.716 46.9771 108.52 48.0051 107.156 48.0051C105.814 48.0051 104.597 46.9562 104.597 45.0891C104.597 43.2221 105.814 42.2151 107.156 42.2151C108.52 42.2151 109.716 43.243 109.716 45.1101ZM125.401 47.5645C125.338 43.2011 119.003 44.5227 119.003 42.6557C119.003 42.0892 119.464 41.7536 120.304 41.7536C121.311 41.7536 121.919 42.278 122.024 43.0752H125.338C125.108 40.7676 123.429 39.0894 120.408 39.0894C117.346 39.0894 115.646 40.7257 115.646 42.7186C115.646 47.0191 122.024 45.6555 122.024 47.5436C122.024 48.068 121.541 48.4876 120.618 48.4876C119.632 48.4876 118.898 47.9421 118.814 47.124H115.269C115.437 49.3896 117.534 51.1308 120.66 51.1308C123.597 51.1308 125.401 49.5994 125.401 47.5645ZM142.74 46.5786C142.74 41.6487 135.461 42.8025 135.461 40.2432C135.461 39.3201 136.111 38.8796 136.971 38.9006C137.936 38.9216 138.608 39.488 138.671 40.432H142.552C142.405 37.6209 140.244 36.0266 137.034 36.0266C133.951 36.0266 131.664 37.579 131.664 40.369C131.622 45.5926 138.985 44.1241 138.985 46.8513C138.985 47.7114 138.314 48.2358 137.265 48.2358C136.258 48.2358 135.545 47.6904 135.44 46.5576H131.622C131.727 49.5365 134.202 51.1098 137.37 51.1098C140.81 51.1098 142.74 49.054 142.74 46.5786ZM156.402 45.1101C156.402 41.397 153.759 39.0894 150.318 39.0894C146.899 39.0894 144.235 41.397 144.235 45.1101C144.235 48.8232 146.836 51.1308 150.276 51.1308C153.717 51.1308 156.402 48.8232 156.402 45.1101ZM147.885 45.1101C147.885 43.1172 149.018 42.1941 150.318 42.1941C151.577 42.1941 152.752 43.1172 152.752 45.1101C152.752 47.082 151.556 48.026 150.276 48.026C148.976 48.026 147.885 47.082 147.885 45.1101ZM169.864 39.2572H166.277V45.6136C166.277 47.2079 165.396 48.089 164.011 48.089C162.669 48.089 161.766 47.2079 161.766 45.6136V39.2572H158.2V46.0961C158.2 49.2218 160.025 51.0889 162.731 51.0889C164.305 51.0889 165.564 50.3756 166.277 49.3686V50.963H169.864V39.2572ZM176.028 45.5297C176.028 43.5158 177.014 42.9284 178.713 42.9284H179.699V39.1313C178.126 39.1313 176.846 39.9705 176.028 41.2082V39.2572H172.441V50.963H176.028V45.5297ZM180.701 45.1101C180.701 48.8232 183.134 51.1308 186.574 51.1308C189.511 51.1308 191.588 49.4316 192.197 46.7254H188.379C188.064 47.5855 187.497 48.068 186.511 48.068C185.232 48.068 184.351 47.0611 184.351 45.1101C184.351 43.1591 185.232 42.1522 186.511 42.1522C187.497 42.1522 188.085 42.6766 188.379 43.4948H192.197C191.588 40.7047 189.511 39.0894 186.574 39.0894C183.134 39.0894 180.701 41.4179 180.701 45.1101ZM199.276 41.9634C200.472 41.9634 201.479 42.6976 201.479 43.9773H196.989C197.199 42.6766 198.101 41.9634 199.276 41.9634ZM204.877 47.082H201.059C200.765 47.7114 200.199 48.2149 199.192 48.2149C198.038 48.2149 197.094 47.5016 196.968 45.9702H205.087C205.129 45.6136 205.15 45.2569 205.15 44.9213C205.15 41.355 202.737 39.0894 199.318 39.0894C195.836 39.0894 193.402 41.397 193.402 45.1101C193.402 48.8232 195.878 51.1308 199.318 51.1308C202.234 51.1308 204.311 49.3686 204.877 47.082ZM216.545 47.5645C216.482 43.2011 210.147 44.5227 210.147 42.6557C210.147 42.0892 210.609 41.7536 211.448 41.7536C212.455 41.7536 213.063 42.278 213.168 43.0752H216.482C216.252 40.7676 214.573 39.0894 211.553 39.0894C208.49 39.0894 206.791 40.7257 206.791 42.7186C206.791 47.0191 213.168 45.6555 213.168 47.5436C213.168 48.068 212.685 48.4876 211.762 48.4876C210.776 48.4876 210.042 47.9421 209.958 47.124H206.413C206.581 49.3896 208.679 51.1308 211.804 51.1308C214.741 51.1308 216.545 49.5994 216.545 47.5645Z" fill="#333333"/>
<path d="M351.675 42.8225C351.145 42.8225 350.716 43.2138 350.716 43.6966C350.716 44.1793 351.145 44.5706 351.675 44.5706C352.205 44.5706 352.634 44.1793 352.634 43.6966C352.634 43.2138 352.205 42.8225 351.675 42.8225Z" stroke="#007EFF" stroke-width="1.74818" stroke-linecap="round" stroke-linejoin="round"/>
<path d="M344.961 42.8225C344.432 42.8225 344.002 43.2138 344.002 43.6966C344.002 44.1793 344.432 44.5706 344.961 44.5706C345.491 44.5706 345.921 44.1793 345.921 43.6966C345.921 43.2138 345.491 42.8225 344.961 42.8225Z" stroke="#007EFF" stroke-width="1.74818" stroke-linecap="round" stroke-linejoin="round"/>
<path d="M338.248 42.8225C337.718 42.8225 337.289 43.2138 337.289 43.6966C337.289 44.1793 337.718 44.5706 338.248 44.5706C338.778 44.5706 339.207 44.1793 339.207 43.6966C339.207 43.2138 338.778 42.8225 338.248 42.8225Z" stroke="#007EFF" stroke-width="1.74818" stroke-linecap="round" stroke-linejoin="round"/>
<defs>
<clipPath id="clip0_73_10571">
<rect width="30.6907" height="27.9708" fill="white" transform="translate(42.8497 167.817)"/>
</clipPath>
</defs>
</svg>
