<svg width="274" height="123" viewBox="0 0 274 123" fill="none" xmlns="http://www.w3.org/2000/svg">
<rect width="273.298" height="122.984" rx="16.3979" transform="matrix(1 0 0 -1 0 122.984)" fill="white"/>
<path d="M31.821 34.2478V36.4943H28.771V45.7591H25.967V36.4943H22.917V34.2478H31.821ZM37.3934 45.8903C36.497 45.8903 35.688 45.699 34.9665 45.3163C34.2559 44.9337 33.6929 44.3871 33.2775 43.6765C32.873 42.966 32.6708 42.1351 32.6708 41.1841C32.6708 40.2439 32.8785 39.4186 33.2939 38.708C33.7093 37.9865 34.2778 37.4344 34.9993 37.0518C35.7208 36.6692 36.5297 36.4779 37.4262 36.4779C38.3226 36.4779 39.1315 36.6692 39.8531 37.0518C40.5746 37.4344 41.143 37.9865 41.5584 38.708C41.9738 39.4186 42.1816 40.2439 42.1816 41.1841C42.1816 42.1242 41.9684 42.955 41.542 43.6765C41.1266 44.3871 40.5527 44.9337 39.8203 45.3163C39.0988 45.699 38.2898 45.8903 37.3934 45.8903ZM37.3934 43.4634C37.929 43.4634 38.3827 43.2666 38.7544 42.8731C39.137 42.4795 39.3283 41.9165 39.3283 41.1841C39.3283 40.4516 39.1425 39.8886 38.7708 39.4951C38.41 39.1015 37.9618 38.9048 37.4262 38.9048C36.8796 38.9048 36.4259 39.1015 36.0651 39.4951C35.7044 39.8777 35.524 40.4407 35.524 41.1841C35.524 41.9165 35.6989 42.4795 36.0487 42.8731C36.4095 43.2666 36.8577 43.4634 37.3934 43.4634ZM48.7689 43.3814V45.7591H47.3423C46.3256 45.7591 45.533 45.5131 44.9646 45.0212C44.3961 44.5183 44.1119 43.7039 44.1119 42.5779V38.9376H42.9968V36.6091H44.1119V34.3789H46.9159V36.6091H48.7525V38.9376H46.9159V42.6107C46.9159 42.884 46.9815 43.0808 47.1127 43.201C47.2439 43.3213 47.4625 43.3814 47.7686 43.3814H48.7689ZM49.7733 41.1677C49.7733 40.2275 49.9482 39.4022 50.298 38.6916C50.6587 37.981 51.1452 37.4344 51.7574 37.0518C52.3696 36.6692 53.0528 36.4779 53.8071 36.4779C54.4521 36.4779 55.0151 36.6091 55.4961 36.8714C55.9881 37.1338 56.3652 37.4781 56.6276 37.9045V36.6091H59.4316V45.7591H56.6276V44.4636C56.3543 44.89 55.9717 45.2343 55.4797 45.4967C54.9987 45.7591 54.4357 45.8903 53.7907 45.8903C53.0474 45.8903 52.3696 45.699 51.7574 45.3163C51.1452 44.9228 50.6587 44.3707 50.298 43.6601C49.9482 42.9386 49.7733 42.1078 49.7733 41.1677ZM56.6276 41.1841C56.6276 40.4844 56.4308 39.9324 56.0372 39.5279C55.6546 39.1234 55.1846 38.9212 54.627 38.9212C54.0695 38.9212 53.594 39.1234 53.2004 39.5279C52.8178 39.9214 52.6265 40.468 52.6265 41.1677C52.6265 41.8673 52.8178 42.4248 53.2004 42.8403C53.594 43.2447 54.0695 43.447 54.627 43.447C55.1846 43.447 55.6546 43.2447 56.0372 42.8403C56.4308 42.4358 56.6276 41.8837 56.6276 41.1841ZM64.2642 33.6246V45.7591H61.4602V33.6246H64.2642ZM72.5753 34.2478V45.7591H69.7712V34.2478H72.5753ZM80.1826 36.5107C81.2539 36.5107 82.1066 36.8605 82.7407 37.5601C83.3857 38.2488 83.7082 39.1999 83.7082 40.4134V45.7591H80.9205V40.7905C80.9205 40.1783 80.762 39.7028 80.445 39.3639C80.128 39.025 79.7016 38.8556 79.166 38.8556C78.6303 38.8556 78.2039 39.025 77.8869 39.3639C77.5699 39.7028 77.4114 40.1783 77.4114 40.7905V45.7591H74.6073V36.6091H77.4114V37.8225C77.6956 37.418 78.0782 37.101 78.5592 36.8714C79.0402 36.6309 79.5814 36.5107 80.1826 36.5107ZM89.7726 43.1354L91.7567 36.6091H94.7411L91.4943 45.7591H88.0344L84.7876 36.6091H87.7884L89.7726 43.1354ZM100.086 45.8903C99.19 45.8903 98.3811 45.699 97.6596 45.3163C96.949 44.9337 96.386 44.3871 95.9706 43.6765C95.5661 42.966 95.3639 42.1351 95.3639 41.1841C95.3639 40.2439 95.5716 39.4186 95.987 38.708C96.4024 37.9865 96.9708 37.4344 97.6924 37.0518C98.4139 36.6692 99.2228 36.4779 100.119 36.4779C101.016 36.4779 101.825 36.6692 102.546 37.0518C103.268 37.4344 103.836 37.9865 104.252 38.708C104.667 39.4186 104.875 40.2439 104.875 41.1841C104.875 42.1242 104.661 42.955 104.235 43.6765C103.82 44.3871 103.246 44.9337 102.513 45.3163C101.792 45.699 100.983 45.8903 100.086 45.8903ZM100.086 43.4634C100.622 43.4634 101.076 43.2666 101.447 42.8731C101.83 42.4795 102.021 41.9165 102.021 41.1841C102.021 40.4516 101.836 39.8886 101.464 39.4951C101.103 39.1015 100.655 38.9048 100.119 38.9048C99.5726 38.9048 99.119 39.1015 98.7582 39.4951C98.3975 39.8777 98.2171 40.4407 98.2171 41.1841C98.2171 41.9165 98.392 42.4795 98.7418 42.8731C99.1026 43.2666 99.5508 43.4634 100.086 43.4634ZM107.772 35.658C107.281 35.658 106.876 35.5159 106.559 35.2316C106.253 34.9365 106.1 34.5757 106.1 34.1494C106.1 33.7121 106.253 33.3513 106.559 33.0671C106.876 32.772 107.281 32.6244 107.772 32.6244C108.253 32.6244 108.647 32.772 108.953 33.0671C109.27 33.3513 109.429 33.7121 109.429 34.1494C109.429 34.5757 109.27 34.9365 108.953 35.2316C108.647 35.5159 108.253 35.658 107.772 35.658ZM109.166 36.6091V45.7591H106.362V36.6091H109.166ZM110.641 41.1841C110.641 40.233 110.832 39.4022 111.215 38.6916C111.608 37.981 112.149 37.4344 112.838 37.0518C113.538 36.6692 114.336 36.4779 115.232 36.4779C116.38 36.4779 117.337 36.7785 118.102 37.3798C118.878 37.981 119.386 38.8282 119.627 39.9214H116.642C116.391 39.2218 115.905 38.872 115.183 38.872C114.669 38.872 114.259 39.0742 113.953 39.4787C113.647 39.8722 113.494 40.4407 113.494 41.1841C113.494 41.9274 113.647 42.5014 113.953 42.9058C114.259 43.2994 114.669 43.4962 115.183 43.4962C115.905 43.4962 116.391 43.1463 116.642 42.4467H119.627C119.386 43.518 118.878 44.3598 118.102 44.972C117.326 45.5842 116.369 45.8903 115.232 45.8903C114.336 45.8903 113.538 45.699 112.838 45.3163C112.149 44.9337 111.608 44.3871 111.215 43.6765C110.832 42.966 110.641 42.1351 110.641 41.1841ZM129.752 41.0365C129.752 41.2989 129.736 41.5722 129.703 41.8564H123.357C123.401 42.4248 123.581 42.8621 123.898 43.1682C124.226 43.4634 124.625 43.611 125.095 43.611C125.795 43.611 126.281 43.3158 126.554 42.7255H129.539C129.386 43.3267 129.107 43.8679 128.703 44.3489C128.309 44.8299 127.812 45.207 127.21 45.4803C126.609 45.7536 125.937 45.8903 125.193 45.8903C124.297 45.8903 123.499 45.699 122.799 45.3163C122.1 44.9337 121.553 44.3871 121.16 43.6765C120.766 42.966 120.569 42.1351 120.569 41.1841C120.569 40.233 120.761 39.4022 121.143 38.6916C121.537 37.981 122.083 37.4344 122.783 37.0518C123.483 36.6692 124.286 36.4779 125.193 36.4779C126.079 36.4779 126.866 36.6637 127.555 37.0354C128.243 37.4071 128.779 37.9373 129.162 38.626C129.555 39.3147 129.752 40.1182 129.752 41.0365ZM126.882 40.2986C126.882 39.8176 126.718 39.435 126.39 39.1507C126.062 38.8665 125.653 38.7244 125.161 38.7244C124.691 38.7244 124.292 38.861 123.964 39.1343C123.647 39.4076 123.45 39.7957 123.373 40.2986H126.882Z" fill="#333333"/>
<path d="M36.2731 70.9343H28.5989V74.3286C28.9268 73.9679 29.386 73.6727 29.9763 73.4432C30.5666 73.2136 31.2061 73.0988 31.8948 73.0988C33.1247 73.0988 34.1413 73.3776 34.9448 73.9351C35.7647 74.4926 36.3633 75.2141 36.7404 76.0996C37.1176 76.9851 37.3061 77.9444 37.3061 78.9774C37.3061 80.896 36.765 82.421 35.6827 83.5525C34.6005 84.6675 33.0755 85.225 31.1077 85.225C29.7959 85.225 28.6562 85.0037 27.6888 84.5609C26.7213 84.1018 25.9752 83.4705 25.4505 82.667C24.9257 81.8635 24.6388 80.937 24.5896 79.8875H28.6972C28.7956 80.3959 29.0334 80.8222 29.4105 81.1666C29.7877 81.4945 30.3042 81.6585 30.9601 81.6585C31.7308 81.6585 32.3048 81.4125 32.6819 80.9206C33.0591 80.4287 33.2477 79.7727 33.2477 78.9528C33.2477 78.1493 33.0509 77.5344 32.6573 77.1081C32.2638 76.6817 31.6899 76.4686 30.9356 76.4686C30.378 76.4686 29.9189 76.6079 29.5581 76.8867C29.1974 77.1491 28.9596 77.5016 28.8448 77.9444H24.7863V67.2448H36.2731V70.9343ZM39.4803 81.8553C40.0378 81.4125 40.292 81.2076 40.2428 81.2404C41.8498 79.9121 43.1124 78.8217 44.0307 77.969C44.9654 77.1163 45.7524 76.2226 46.392 75.2879C47.0315 74.3532 47.3512 73.4432 47.3512 72.5577C47.3512 71.8854 47.1955 71.3606 46.8839 70.9835C46.5723 70.6063 46.105 70.4177 45.4819 70.4177C44.8588 70.4177 44.3668 70.6555 44.0061 71.1311C43.6617 71.5902 43.4895 72.2461 43.4895 73.0988H39.4311C39.4639 71.705 39.759 70.5407 40.3166 69.6061C40.8905 68.6714 41.6366 67.9827 42.5549 67.5399C43.4895 67.0972 44.5226 66.8758 45.6541 66.8758C47.6054 66.8758 49.073 67.3759 50.0569 68.3762C51.0572 69.3765 51.5573 70.6801 51.5573 72.2871C51.5573 74.0417 50.9588 75.6733 49.7617 77.1819C48.5647 78.6741 47.0397 80.1335 45.1867 81.5601H51.8279V84.9791H39.4803V81.8553ZM53.6797 76.0012C53.6797 73.1808 54.2209 70.9589 55.3031 69.3355C56.4018 67.7121 58.1646 66.9004 60.5914 66.9004C63.0183 66.9004 64.7729 67.7121 65.8552 69.3355C66.9538 70.9589 67.5032 73.1808 67.5032 76.0012C67.5032 78.8545 66.9538 81.0928 65.8552 82.7162C64.7729 84.3396 63.0183 85.1512 60.5914 85.1512C58.1646 85.1512 56.4018 84.3396 55.3031 82.7162C54.2209 81.0928 53.6797 78.8545 53.6797 76.0012ZM63.3709 76.0012C63.3709 74.345 63.1905 73.0742 62.8298 72.1887C62.469 71.2868 61.7229 70.8359 60.5914 70.8359C59.46 70.8359 58.7139 71.2868 58.3531 72.1887C57.9924 73.0742 57.812 74.345 57.812 76.0012C57.812 77.1163 57.8776 78.0428 58.0088 78.7807C58.14 79.5022 58.4023 80.0925 58.7959 80.5516C59.2058 80.9944 59.8043 81.2158 60.5914 81.2158C61.3785 81.2158 61.9689 80.9944 62.3624 80.5516C62.7724 80.0925 63.0429 79.5022 63.1741 78.7807C63.3053 78.0428 63.3709 77.1163 63.3709 76.0012Z" fill="#333333"/>
<path d="M78.6407 78.3551V76.6006H81.7235V73.7637H83.5109V76.6006H86.5773V78.3551H83.5109V81.192H81.7235V78.3551H78.6407ZM89.868 82.225V73.1406L87.9822 73.5834V71.9764L90.7535 70.7465H92.0489V82.225H89.868ZM93.9958 82.225V80.7C94.6954 80.1206 95.3732 79.5467 96.0291 78.9783C96.696 78.4098 97.2863 77.8468 97.8001 77.2893C98.3248 76.7317 98.7402 76.1906 99.0463 75.6659C99.3633 75.1302 99.5219 74.611 99.5219 74.1081C99.5219 73.638 99.3907 73.2226 99.1283 72.8618C98.8769 72.5011 98.456 72.3207 97.8657 72.3207C97.2644 72.3207 96.8107 72.5175 96.5046 72.911C96.1986 73.3046 96.0455 73.7801 96.0455 74.3377H94.0122C94.034 73.4959 94.2199 72.7963 94.5697 72.2387C94.9195 71.6703 95.3841 71.2494 95.9635 70.9761C96.5429 70.6919 97.1934 70.5497 97.9149 70.5497C99.0846 70.5497 99.9919 70.8722 100.637 71.5172C101.293 72.1513 101.621 72.9766 101.621 73.9933C101.621 74.6274 101.473 75.245 101.178 75.8463C100.894 76.4475 100.517 77.0269 100.047 77.5844C99.5765 78.142 99.0682 78.6667 98.5216 79.1586C97.975 79.6396 97.4448 80.0878 96.931 80.5033H101.9V82.225H93.9958ZM106.004 76.3874C105.479 76.3874 105.003 76.2726 104.577 76.043C104.151 75.8025 103.812 75.4636 103.56 75.0264C103.309 74.5891 103.183 74.0698 103.183 73.4686C103.183 72.8673 103.309 72.348 103.56 71.9108C103.812 71.4735 104.151 71.1401 104.577 70.9105C105.003 70.67 105.484 70.5497 106.02 70.5497C106.545 70.5497 107.015 70.67 107.43 70.9105C107.857 71.1401 108.196 71.4735 108.447 71.9108C108.698 72.348 108.824 72.8673 108.824 73.4686C108.824 74.0698 108.698 74.5891 108.447 75.0264C108.196 75.4636 107.857 75.8025 107.43 76.043C107.004 76.2726 106.528 76.3874 106.004 76.3874ZM105.381 82.225L111.858 70.7465H113.908L107.43 82.225H105.381ZM106.004 74.928C106.321 74.928 106.594 74.8077 106.824 74.5672C107.053 74.3158 107.168 73.9496 107.168 73.4686C107.168 72.9876 107.053 72.6213 106.824 72.3699C106.605 72.1185 106.332 71.9928 106.004 71.9928C105.676 71.9928 105.397 72.1185 105.167 72.3699C104.949 72.6213 104.84 72.9876 104.84 73.4686C104.84 73.9496 104.949 74.3158 105.167 74.5672C105.397 74.8077 105.676 74.928 106.004 74.928ZM113.35 82.4218C112.825 82.4218 112.35 82.307 111.923 82.0775C111.497 81.837 111.158 81.4981 110.907 81.0608C110.655 80.6235 110.53 80.1042 110.53 79.503C110.53 78.9017 110.655 78.3879 110.907 77.9616C111.158 77.5243 111.497 77.1909 111.923 76.9613C112.35 76.7208 112.831 76.6006 113.366 76.6006C113.891 76.6006 114.361 76.7208 114.777 76.9613C115.203 77.1909 115.542 77.5243 115.793 77.9616C116.045 78.3879 116.17 78.9017 116.17 79.503C116.17 80.1042 116.045 80.6235 115.793 81.0608C115.542 81.4981 115.203 81.837 114.777 82.0775C114.361 82.307 113.886 82.4218 113.35 82.4218ZM113.35 80.9624C113.678 80.9624 113.951 80.8421 114.17 80.6016C114.399 80.3502 114.514 79.984 114.514 79.503C114.514 79.022 114.399 78.6558 114.17 78.4043C113.951 78.1529 113.678 78.0272 113.35 78.0272C113.022 78.0272 112.743 78.1529 112.514 78.4043C112.295 78.6558 112.186 79.022 112.186 79.503C112.186 79.984 112.295 80.3502 112.514 80.6016C112.743 80.8421 113.022 80.9624 113.35 80.9624Z" fill="#73DC8A"/>
<rect x="174.911" y="21.1806" width="8.19894" height="79.9397" rx="4.09947" fill="#F3F3F3"/>
<rect x="174.911" y="68.5867" width="8.19894" height="32.5336" rx="4.09947" fill="#007EFF"/>
<rect x="174.911" y="68.5867" width="8.19894" height="32.5336" rx="4.09947" fill="url(#paint0_linear_73_10592)"/>
<rect x="196.775" y="21.1806" width="8.19894" height="79.9397" rx="4.09947" fill="#F3F3F3"/>
<rect x="196.775" y="45.3484" width="8.19894" height="55.7719" rx="4.09947" fill="#007EFF"/>
<rect x="196.775" y="45.3484" width="8.19894" height="55.7719" rx="4.09947" fill="url(#paint1_linear_73_10592)"/>
<rect x="218.638" y="21.1806" width="8.19894" height="79.9397" rx="4.09947" fill="#F3F3F3"/>
<rect x="218.638" y="34.194" width="8.19894" height="66.9262" rx="4.09947" fill="#007EFF"/>
<rect x="218.638" y="34.194" width="8.19894" height="66.9262" rx="4.09947" fill="url(#paint2_linear_73_10592)"/>
<rect x="240.502" y="21.1806" width="8.19894" height="79.9397" rx="4.09947" fill="#F3F3F3"/>
<rect x="240.502" y="68.5867" width="8.19894" height="32.5336" rx="4.09947" fill="#007EFF"/>
<rect x="240.502" y="68.5867" width="8.19894" height="32.5336" rx="4.09947" fill="url(#paint3_linear_73_10592)"/>
<defs>
<linearGradient id="paint0_linear_73_10592" x1="174.911" y1="68.5867" x2="190.329" y2="72.4724" gradientUnits="userSpaceOnUse">
<stop stop-color="#2AA6DA"/>
<stop offset="1" stop-color="#1B7B77"/>
</linearGradient>
<linearGradient id="paint1_linear_73_10592" x1="196.775" y1="45.3484" x2="212.826" y2="47.708" gradientUnits="userSpaceOnUse">
<stop stop-color="#2AA6DA"/>
<stop offset="1" stop-color="#1B7B77"/>
</linearGradient>
<linearGradient id="paint2_linear_73_10592" x1="218.638" y1="34.194" x2="234.794" y2="36.1732" gradientUnits="userSpaceOnUse">
<stop stop-color="#2AA6DA"/>
<stop offset="1" stop-color="#1B7B77"/>
</linearGradient>
<linearGradient id="paint3_linear_73_10592" x1="240.502" y1="68.5867" x2="255.921" y2="72.4724" gradientUnits="userSpaceOnUse">
<stop stop-color="#2AA6DA"/>
<stop offset="1" stop-color="#1B7B77"/>
</linearGradient>
</defs>
</svg>
